<svg xmlns="http://www.w3.org/2000/svg" version="1.1" xmlns:xlink="http://www.w3.org/1999/xlink" xmlns:svgjs="http://svgjs.com/svgjs" width="1440" height="560" preserveAspectRatio="none" viewBox="0 0 1440 560"><g mask="url(&quot;#SvgjsMask1000&quot;)" fill="none"><rect width="1440" height="560" x="0" y="0" fill="#0e2a47"></rect><path d="M-112.11 533.79L-112.11 533.79" stroke="#132e65" stroke-width="1.5"></path><path d="M-112.11 533.79L-69.82 637.66" stroke="#132e65" stroke-width="1.5"></path><path d="M-112.11 533.79L86.66 522.96" stroke="#132e65" stroke-width="1.5"></path><path d="M-112.11 533.79L83.62 663.85" stroke="#132e65" stroke-width="1.5"></path><path d="M-112.11 533.79L59.75 345.68" stroke="#132e65" stroke-width="1.5"></path><path d="M-69.82 637.66L-69.82 637.66" stroke="#132e65" stroke-width="1.5"></path><path d="M-69.82 637.66L83.62 663.85" stroke="#132e65" stroke-width="1.5"></path><path d="M-69.82 637.66L86.66 522.96" stroke="#132e65" stroke-width="1.5"></path><path d="M-69.82 637.66L199.46 546.33" stroke="#132e65" stroke-width="1.5"></path><path d="M-69.82 637.66L59.75 345.68" stroke="#132e65" stroke-width="1.5"></path><path d="M59.75 345.68L59.75 345.68" stroke="#132e65" stroke-width="1.5"></path><path d="M59.75 345.68L86.66 522.96" stroke="#132e65" stroke-width="1.5"></path><path d="M59.75 345.68L199.46 546.33" stroke="#132e65" stroke-width="1.5"></path><path d="M59.75 345.68L351.57 352.27" stroke="#132e65" stroke-width="1.5"></path><path d="M86.66 522.96L86.66 522.96" stroke="#132e65" stroke-width="1.5"></path><path d="M86.66 522.96L199.46 546.33" stroke="#132e65" stroke-width="1.5"></path><path d="M86.66 522.96L83.62 663.85" stroke="#132e65" stroke-width="1.5"></path><path d="M83.62 663.85L83.62 663.85" stroke="#132e65" stroke-width="1.5"></path><path d="M199.46 546.33L199.46 546.33" stroke="#132e65" stroke-width="1.5"></path><path d="M199.46 546.33L258.52 645.29" stroke="#132e65" stroke-width="1.5"></path><path d="M258.52 645.29L258.52 645.29" stroke="#132e65" stroke-width="1.5"></path><path d="M258.52 645.29L378.65 706.92" stroke="#132e65" stroke-width="1.5"></path><path d="M351.57 352.27L351.57 352.27" stroke="#132e65" stroke-width="1.5"></path><path d="M351.57 352.27L367.6 489.63" stroke="#132e65" stroke-width="1.5"></path><path d="M351.57 352.27L514.93 377.59" stroke="#132e65" stroke-width="1.5"></path><path d="M367.6 489.63L367.6 489.63" stroke="#132e65" stroke-width="1.5"></path><path d="M367.6 489.63L489.77 539.11" stroke="#132e65" stroke-width="1.5"></path><path d="M367.6 489.63L199.46 546.33" stroke="#132e65" stroke-width="1.5"></path><path d="M367.6 489.63L514.93 377.59" stroke="#132e65" stroke-width="1.5"></path><path d="M367.6 489.63L258.52 645.29" stroke="#132e65" stroke-width="1.5"></path><path d="M367.6 489.63L378.65 706.92" stroke="#132e65" stroke-width="1.5"></path><path d="M378.65 706.92L378.65 706.92" stroke="#132e65" stroke-width="1.5"></path><path d="M378.65 706.92L525.37 639.76" stroke="#132e65" stroke-width="1.5"></path><path d="M378.65 706.92L489.77 539.11" stroke="#132e65" stroke-width="1.5"></path><path d="M514.93 377.59L514.93 377.59" stroke="#132e65" stroke-width="1.5"></path><path d="M514.93 377.59L489.77 539.11" stroke="#132e65" stroke-width="1.5"></path><path d="M514.93 377.59L644.65 261" stroke="#132e65" stroke-width="1.5"></path><path d="M514.93 377.59L688.51 557.99" stroke="#132e65" stroke-width="1.5"></path><path d="M514.93 377.59L525.37 639.76" stroke="#132e65" stroke-width="1.5"></path><path d="M489.77 539.11L489.77 539.11" stroke="#132e65" stroke-width="1.5"></path><path d="M489.77 539.11L525.37 639.76" stroke="#132e65" stroke-width="1.5"></path><path d="M525.37 639.76L525.37 639.76" stroke="#132e65" stroke-width="1.5"></path><path d="M644.65 261L644.65 261" stroke="#132e65" stroke-width="1.5"></path><path d="M644.65 261L805.12 229.57" stroke="#132e65" stroke-width="1.5"></path><path d="M644.65 261L817.74 367.08" stroke="#132e65" stroke-width="1.5"></path><path d="M644.65 261L688.51 557.99" stroke="#132e65" stroke-width="1.5"></path><path d="M644.65 261L351.57 352.27" stroke="#132e65" stroke-width="1.5"></path><path d="M644.65 261L947.6 196.2" stroke="#132e65" stroke-width="1.5"></path><path d="M688.51 557.99L688.51 557.99" stroke="#132e65" stroke-width="1.5"></path><path d="M688.51 557.99L711.43 663.35" stroke="#132e65" stroke-width="1.5"></path><path d="M688.51 557.99L525.37 639.76" stroke="#132e65" stroke-width="1.5"></path><path d="M688.51 557.99L857.65 652.93" stroke="#132e65" stroke-width="1.5"></path><path d="M711.43 663.35L711.43 663.35" stroke="#132e65" stroke-width="1.5"></path><path d="M711.43 663.35L857.65 652.93" stroke="#132e65" stroke-width="1.5"></path><path d="M711.43 663.35L525.37 639.76" stroke="#132e65" stroke-width="1.5"></path><path d="M711.43 663.35L946.63 665.27" stroke="#132e65" stroke-width="1.5"></path><path d="M711.43 663.35L489.77 539.11" stroke="#132e65" stroke-width="1.5"></path><path d="M805.12 229.57L805.12 229.57" stroke="#132e65" stroke-width="1.5"></path><path d="M805.12 229.57L817.74 367.08" stroke="#132e65" stroke-width="1.5"></path><path d="M805.12 229.57L947.6 196.2" stroke="#132e65" stroke-width="1.5"></path><path d="M805.12 229.57L981.9 350.27" stroke="#132e65" stroke-width="1.5"></path><path d="M805.12 229.57L989.38 105.64" stroke="#132e65" stroke-width="1.5"></path><path d="M805.12 229.57L1115.44 223.62" stroke="#132e65" stroke-width="1.5"></path><path d="M817.74 367.08L817.74 367.08" stroke="#132e65" stroke-width="1.5"></path><path d="M817.74 367.08L981.9 350.27" stroke="#132e65" stroke-width="1.5"></path><path d="M857.65 652.93L857.65 652.93" stroke="#132e65" stroke-width="1.5"></path><path d="M857.65 652.93L946.63 665.27" stroke="#132e65" stroke-width="1.5"></path><path d="M989.38 105.64L989.38 105.64" stroke="#132e65" stroke-width="1.5"></path><path d="M989.38 105.64L947.6 196.2" stroke="#132e65" stroke-width="1.5"></path><path d="M989.38 105.64L1115.89 83.01" stroke="#132e65" stroke-width="1.5"></path><path d="M989.38 105.64L1115.44 223.62" stroke="#132e65" stroke-width="1.5"></path><path d="M947.6 196.2L947.6 196.2" stroke="#132e65" stroke-width="1.5"></path><path d="M947.6 196.2L981.9 350.27" stroke="#132e65" stroke-width="1.5"></path><path d="M947.6 196.2L1115.44 223.62" stroke="#132e65" stroke-width="1.5"></path><path d="M981.9 350.27L981.9 350.27" stroke="#132e65" stroke-width="1.5"></path><path d="M981.9 350.27L1101.28 399.23" stroke="#132e65" stroke-width="1.5"></path><path d="M981.9 350.27L1115.44 223.62" stroke="#132e65" stroke-width="1.5"></path><path d="M981.9 350.27L942.06 532.45" stroke="#132e65" stroke-width="1.5"></path><path d="M942.06 532.45L942.06 532.45" stroke="#132e65" stroke-width="1.5"></path><path d="M942.06 532.45L946.63 665.27" stroke="#132e65" stroke-width="1.5"></path><path d="M942.06 532.45L857.65 652.93" stroke="#132e65" stroke-width="1.5"></path><path d="M946.63 665.27L946.63 665.27" stroke="#132e65" stroke-width="1.5"></path><path d="M946.63 665.27L1141.47 541.05" stroke="#132e65" stroke-width="1.5"></path><path d="M946.63 665.27L688.51 557.99" stroke="#132e65" stroke-width="1.5"></path><path d="M1153.27 -92.58L1153.27 -92.58" stroke="#132e65" stroke-width="1.5"></path><path d="M1153.27 -92.58L1115.89 83.01" stroke="#132e65" stroke-width="1.5"></path><path d="M1153.27 -92.58L1298.31 60.79" stroke="#132e65" stroke-width="1.5"></path><path d="M1153.27 -92.58L989.38 105.64" stroke="#132e65" stroke-width="1.5"></path><path d="M1153.27 -92.58L1431.16 -59.84" stroke="#132e65" stroke-width="1.5"></path><path d="M1153.27 -92.58L1405.23 98.16" stroke="#132e65" stroke-width="1.5"></path><path d="M1153.27 -92.58L1115.44 223.62" stroke="#132e65" stroke-width="1.5"></path><path d="M1115.89 83.01L1115.89 83.01" stroke="#132e65" stroke-width="1.5"></path><path d="M1115.89 83.01L1115.44 223.62" stroke="#132e65" stroke-width="1.5"></path><path d="M1115.44 223.62L1115.44 223.62" stroke="#132e65" stroke-width="1.5"></path><path d="M1115.44 223.62L1248.39 219.21" stroke="#132e65" stroke-width="1.5"></path><path d="M1101.28 399.23L1101.28 399.23" stroke="#132e65" stroke-width="1.5"></path><path d="M1101.28 399.23L1243.34 378.15" stroke="#132e65" stroke-width="1.5"></path><path d="M1101.28 399.23L1141.47 541.05" stroke="#132e65" stroke-width="1.5"></path><path d="M1101.28 399.23L1115.44 223.62" stroke="#132e65" stroke-width="1.5"></path><path d="M1101.28 399.23L942.06 532.45" stroke="#132e65" stroke-width="1.5"></path><path d="M1141.47 541.05L1141.47 541.05" stroke="#132e65" stroke-width="1.5"></path><path d="M1141.47 541.05L1291.54 492.26" stroke="#132e65" stroke-width="1.5"></path><path d="M1141.47 541.05L1243.34 378.15" stroke="#132e65" stroke-width="1.5"></path><path d="M1141.47 541.05L942.06 532.45" stroke="#132e65" stroke-width="1.5"></path><path d="M1141.47 541.05L981.9 350.27" stroke="#132e65" stroke-width="1.5"></path><path d="M1298.31 60.79L1298.31 60.79" stroke="#132e65" stroke-width="1.5"></path><path d="M1298.31 60.79L1405.23 98.16" stroke="#132e65" stroke-width="1.5"></path><path d="M1298.31 60.79L1248.39 219.21" stroke="#132e65" stroke-width="1.5"></path><path d="M1248.39 219.21L1248.39 219.21" stroke="#132e65" stroke-width="1.5"></path><path d="M1248.39 219.21L1243.34 378.15" stroke="#132e65" stroke-width="1.5"></path><path d="M1248.39 219.21L1427.67 260.52" stroke="#132e65" stroke-width="1.5"></path><path d="M1248.39 219.21L1115.89 83.01" stroke="#132e65" stroke-width="1.5"></path><path d="M1248.39 219.21L1405.23 98.16" stroke="#132e65" stroke-width="1.5"></path><path d="M1243.34 378.15L1243.34 378.15" stroke="#132e65" stroke-width="1.5"></path><path d="M1243.34 378.15L1291.54 492.26" stroke="#132e65" stroke-width="1.5"></path><path d="M1243.34 378.15L1431.09 340.66" stroke="#132e65" stroke-width="1.5"></path><path d="M1291.54 492.26L1291.54 492.26" stroke="#132e65" stroke-width="1.5"></path><path d="M1431.16 -59.84L1431.16 -59.84" stroke="#132e65" stroke-width="1.5"></path><path d="M1431.16 -59.84L1550.44 -84.8" stroke="#132e65" stroke-width="1.5"></path><path d="M1431.16 -59.84L1405.23 98.16" stroke="#132e65" stroke-width="1.5"></path><path d="M1405.23 98.16L1405.23 98.16" stroke="#132e65" stroke-width="1.5"></path><path d="M1405.23 98.16L1427.67 260.52" stroke="#132e65" stroke-width="1.5"></path><path d="M1405.23 98.16L1561.94 210.41" stroke="#132e65" stroke-width="1.5"></path><path d="M1427.67 260.52L1427.67 260.52" stroke="#132e65" stroke-width="1.5"></path><path d="M1427.67 260.52L1431.09 340.66" stroke="#132e65" stroke-width="1.5"></path><path d="M1427.67 260.52L1561.94 210.41" stroke="#132e65" stroke-width="1.5"></path><path d="M1431.09 340.66L1431.09 340.66" stroke="#132e65" stroke-width="1.5"></path><path d="M1431.09 340.66L1585.23 360.01" stroke="#132e65" stroke-width="1.5"></path><path d="M1431.09 340.66L1561.94 210.41" stroke="#132e65" stroke-width="1.5"></path><path d="M1431.09 340.66L1291.54 492.26" stroke="#132e65" stroke-width="1.5"></path><path d="M1431.09 340.66L1442.25 554.03" stroke="#132e65" stroke-width="1.5"></path><path d="M1442.25 554.03L1442.25 554.03" stroke="#132e65" stroke-width="1.5"></path><path d="M1442.25 554.03L1546.59 537.48" stroke="#132e65" stroke-width="1.5"></path><path d="M1442.25 554.03L1414.01 695.65" stroke="#132e65" stroke-width="1.5"></path><path d="M1442.25 554.03L1291.54 492.26" stroke="#132e65" stroke-width="1.5"></path><path d="M1442.25 554.03L1609.61 673" stroke="#132e65" stroke-width="1.5"></path><path d="M1414.01 695.65L1414.01 695.65" stroke="#132e65" stroke-width="1.5"></path><path d="M1550.44 -84.8L1550.44 -84.8" stroke="#132e65" stroke-width="1.5"></path><path d="M1550.44 -84.8L1405.23 98.16" stroke="#132e65" stroke-width="1.5"></path><path d="M1550.44 -84.8L1298.31 60.79" stroke="#132e65" stroke-width="1.5"></path><path d="M1561.94 210.41L1561.94 210.41" stroke="#132e65" stroke-width="1.5"></path><path d="M1561.94 210.41L1585.23 360.01" stroke="#132e65" stroke-width="1.5"></path><path d="M1561.94 210.41L1550.44 -84.8" stroke="#132e65" stroke-width="1.5"></path><path d="M1561.94 210.41L1431.16 -59.84" stroke="#132e65" stroke-width="1.5"></path><path d="M1585.23 360.01L1585.23 360.01" stroke="#132e65" stroke-width="1.5"></path><path d="M1546.59 537.48L1546.59 537.48" stroke="#132e65" stroke-width="1.5"></path><path d="M1546.59 537.48L1609.61 673" stroke="#132e65" stroke-width="1.5"></path><path d="M1546.59 537.48L1585.23 360.01" stroke="#132e65" stroke-width="1.5"></path><path d="M1546.59 537.48L1414.01 695.65" stroke="#132e65" stroke-width="1.5"></path><path d="M1609.61 673L1609.61 673" stroke="#132e65" stroke-width="1.5"></path><path d="M1609.61 673L1414.01 695.65" stroke="#132e65" stroke-width="1.5"></path><path d="M1609.61 673L1585.23 360.01" stroke="#132e65" stroke-width="1.5"></path><path d="M1609.61 673L1291.54 492.26" stroke="#132e65" stroke-width="1.5"></path><path d="M1609.61 673L1431.09 340.66" stroke="#132e65" stroke-width="1.5"></path><circle r="5" cx="-112.11" cy="533.79" fill="#132e65"></circle><circle r="5" cx="-69.82" cy="637.66" fill="#132e65"></circle><circle r="5" cx="59.75" cy="345.68" fill="#132e65"></circle><circle r="5" cx="86.66" cy="522.96" fill="#132e65"></circle><circle r="5" cx="83.62" cy="663.85" fill="#132e65"></circle><circle r="5" cx="199.46" cy="546.33" fill="#132e65"></circle><circle r="5" cx="258.52" cy="645.29" fill="#132e65"></circle><circle r="5" cx="351.57" cy="352.27" fill="#132e65"></circle><circle r="5" cx="367.6" cy="489.63" fill="#132e65"></circle><circle r="5" cx="378.65" cy="706.92" fill="#132e65"></circle><circle r="5" cx="514.93" cy="377.59" fill="#132e65"></circle><circle r="5" cx="489.77" cy="539.11" fill="#132e65"></circle><circle r="5" cx="525.37" cy="639.76" fill="#132e65"></circle><circle r="5" cx="644.65" cy="261" fill="#132e65"></circle><circle r="5" cx="688.51" cy="557.99" fill="#132e65"></circle><circle r="5" cx="711.43" cy="663.35" fill="#132e65"></circle><circle r="5" cx="805.12" cy="229.57" fill="#132e65"></circle><circle r="5" cx="817.74" cy="367.08" fill="#132e65"></circle><circle r="5" cx="857.65" cy="652.93" fill="#132e65"></circle><circle r="5" cx="989.38" cy="105.64" fill="#132e65"></circle><circle r="5" cx="947.6" cy="196.2" fill="#132e65"></circle><circle r="5" cx="981.9" cy="350.27" fill="#132e65"></circle><circle r="5" cx="942.06" cy="532.45" fill="#132e65"></circle><circle r="5" cx="946.63" cy="665.27" fill="#132e65"></circle><circle r="5" cx="1153.27" cy="-92.58" fill="#132e65"></circle><circle r="5" cx="1115.89" cy="83.01" fill="#132e65"></circle><circle r="5" cx="1115.44" cy="223.62" fill="#132e65"></circle><circle r="5" cx="1101.28" cy="399.23" fill="#132e65"></circle><circle r="5" cx="1141.47" cy="541.05" fill="#132e65"></circle><circle r="5" cx="1298.31" cy="60.79" fill="#132e65"></circle><circle r="5" cx="1248.39" cy="219.21" fill="#132e65"></circle><circle r="5" cx="1243.34" cy="378.15" fill="#132e65"></circle><circle r="5" cx="1291.54" cy="492.26" fill="#132e65"></circle><circle r="5" cx="1431.16" cy="-59.84" fill="#132e65"></circle><circle r="5" cx="1405.23" cy="98.16" fill="#132e65"></circle><circle r="5" cx="1427.67" cy="260.52" fill="#132e65"></circle><circle r="5" cx="1431.09" cy="340.66" fill="#132e65"></circle><circle r="5" cx="1442.25" cy="554.03" fill="#132e65"></circle><circle r="5" cx="1414.01" cy="695.65" fill="#132e65"></circle><circle r="5" cx="1550.44" cy="-84.8" fill="#132e65"></circle><circle r="5" cx="1561.94" cy="210.41" fill="#132e65"></circle><circle r="5" cx="1585.23" cy="360.01" fill="#132e65"></circle><circle r="5" cx="1546.59" cy="537.48" fill="#132e65"></circle><circle r="5" cx="1609.61" cy="673" fill="#132e65"></circle><path d="M-95.78 707.52L-95.78 707.52" stroke="hsl(228.5, 77.2%, 51.5%)" stroke-width="1.5"></path><path d="M-95.78 707.52L68.32 641.83" stroke="hsl(228.5, 77.2%, 51.5%)" stroke-width="1.5"></path><path d="M-95.78 707.52L-82.71 487.82" stroke="hsl(228.5, 77.2%, 51.5%)" stroke-width="1.5"></path><path d="M-95.78 707.52L62.52 543.99" stroke="hsl(228.5, 77.2%, 51.5%)" stroke-width="1.5"></path><path d="M-95.78 707.52L190.82 672.35" stroke="hsl(228.5, 77.2%, 51.5%)" stroke-width="1.5"></path><path d="M-95.78 707.52L257.8 550.75" stroke="hsl(228.5, 77.2%, 51.5%)" stroke-width="1.5"></path><path d="M-95.78 707.52L379.98 709.48" stroke="hsl(228.5, 77.2%, 51.5%)" stroke-width="1.5"></path><path d="M62.52 543.99L62.52 543.99" stroke="hsl(228.5, 77.2%, 51.5%)" stroke-width="1.5"></path><path d="M62.52 543.99L68.32 641.83" stroke="hsl(228.5, 77.2%, 51.5%)" stroke-width="1.5"></path><path d="M62.52 543.99L-82.71 487.82" stroke="hsl(228.5, 77.2%, 51.5%)" stroke-width="1.5"></path><path d="M62.52 543.99L190.82 672.35" stroke="hsl(228.5, 77.2%, 51.5%)" stroke-width="1.5"></path><path d="M62.52 543.99L257.8 550.75" stroke="hsl(228.5, 77.2%, 51.5%)" stroke-width="1.5"></path><path d="M62.52 543.99L390.5 497.18" stroke="hsl(228.5, 77.2%, 51.5%)" stroke-width="1.5"></path><path d="M257.8 550.75L257.8 550.75" stroke="hsl(228.5, 77.2%, 51.5%)" stroke-width="1.5"></path><path d="M257.8 550.75L190.82 672.35" stroke="hsl(228.5, 77.2%, 51.5%)" stroke-width="1.5"></path><path d="M257.8 550.75L390.5 497.18" stroke="hsl(228.5, 77.2%, 51.5%)" stroke-width="1.5"></path><path d="M257.8 550.75L379.98 709.48" stroke="hsl(228.5, 77.2%, 51.5%)" stroke-width="1.5"></path><path d="M257.8 550.75L68.32 641.83" stroke="hsl(228.5, 77.2%, 51.5%)" stroke-width="1.5"></path><path d="M257.8 550.75L508.59 412.32" stroke="hsl(228.5, 77.2%, 51.5%)" stroke-width="1.5"></path><path d="M190.82 672.35L190.82 672.35" stroke="hsl(228.5, 77.2%, 51.5%)" stroke-width="1.5"></path><path d="M190.82 672.35L68.32 641.83" stroke="hsl(228.5, 77.2%, 51.5%)" stroke-width="1.5"></path><path d="M190.82 672.35L379.98 709.48" stroke="hsl(228.5, 77.2%, 51.5%)" stroke-width="1.5"></path><path d="M190.82 672.35L390.5 497.18" stroke="hsl(228.5, 77.2%, 51.5%)" stroke-width="1.5"></path><path d="M554.26 661.35L554.26 661.35" stroke="hsl(228.5, 77.2%, 51.5%)" stroke-width="1.5"></path><path d="M554.26 661.35L688.92 703.83" stroke="hsl(228.5, 77.2%, 51.5%)" stroke-width="1.5"></path><path d="M554.26 661.35L560.62 504.01" stroke="hsl(228.5, 77.2%, 51.5%)" stroke-width="1.5"></path><path d="M554.26 661.35L379.98 709.48" stroke="hsl(228.5, 77.2%, 51.5%)" stroke-width="1.5"></path><path d="M554.26 661.35L699.59 508.03" stroke="hsl(228.5, 77.2%, 51.5%)" stroke-width="1.5"></path><path d="M554.26 661.35L390.5 497.18" stroke="hsl(228.5, 77.2%, 51.5%)" stroke-width="1.5"></path><path d="M554.26 661.35L508.59 412.32" stroke="hsl(228.5, 77.2%, 51.5%)" stroke-width="1.5"></path><path d="M819.53 693.72L819.53 693.72" stroke="hsl(228.5, 77.2%, 51.5%)" stroke-width="1.5"></path><path d="M819.53 693.72L688.92 703.83" stroke="hsl(228.5, 77.2%, 51.5%)" stroke-width="1.5"></path><path d="M819.53 693.72L856.49 524.61" stroke="hsl(228.5, 77.2%, 51.5%)" stroke-width="1.5"></path><path d="M819.53 693.72L1011.12 651.86" stroke="hsl(228.5, 77.2%, 51.5%)" stroke-width="1.5"></path><path d="M1011.12 651.86L1011.12 651.86" stroke="hsl(228.5, 77.2%, 51.5%)" stroke-width="1.5"></path><path d="M1011.12 651.86L1138.51 680.9" stroke="hsl(228.5, 77.2%, 51.5%)" stroke-width="1.5"></path><path d="M1011.12 651.86L940.71 516.48" stroke="hsl(228.5, 77.2%, 51.5%)" stroke-width="1.5"></path><path d="M1011.12 651.86L1111.67 493.82" stroke="hsl(228.5, 77.2%, 51.5%)" stroke-width="1.5"></path><path d="M1087.94 386.74L1087.94 386.74" stroke="hsl(228.5, 77.2%, 51.5%)" stroke-width="1.5"></path><path d="M1087.94 386.74L986.81 350.52" stroke="hsl(228.5, 77.2%, 51.5%)" stroke-width="1.5"></path><path d="M1087.94 386.74L1111.67 493.82" stroke="hsl(228.5, 77.2%, 51.5%)" stroke-width="1.5"></path><path d="M1087.94 386.74L1245.86 390.49" stroke="hsl(228.5, 77.2%, 51.5%)" stroke-width="1.5"></path><path d="M1087.94 386.74L999.29 233.05" stroke="hsl(228.5, 77.2%, 51.5%)" stroke-width="1.5"></path><path d="M1087.94 386.74L940.71 516.48" stroke="hsl(228.5, 77.2%, 51.5%)" stroke-width="1.5"></path><path d="M1454.3 207.79L1454.3 207.79" stroke="hsl(228.5, 77.2%, 51.5%)" stroke-width="1.5"></path><path d="M1454.3 207.79L1590.9 233.59" stroke="hsl(228.5, 77.2%, 51.5%)" stroke-width="1.5"></path><path d="M1454.3 207.79L1556.79 99.69" stroke="hsl(228.5, 77.2%, 51.5%)" stroke-width="1.5"></path><path d="M1454.3 207.79L1430.66 59.63" stroke="hsl(228.5, 77.2%, 51.5%)" stroke-width="1.5"></path><path d="M1454.3 207.79L1296.53 240.09" stroke="hsl(228.5, 77.2%, 51.5%)" stroke-width="1.5"></path><path d="M1454.3 207.79L1457.24 389.35" stroke="hsl(228.5, 77.2%, 51.5%)" stroke-width="1.5"></path><path d="M1454.3 207.79L1591.2 382.34" stroke="hsl(228.5, 77.2%, 51.5%)" stroke-width="1.5"></path><path d="M1584.89 -63.79L1584.89 -63.79" stroke="hsl(228.5, 77.2%, 51.5%)" stroke-width="1.5"></path><path d="M1584.89 -63.79L1556.79 99.69" stroke="hsl(228.5, 77.2%, 51.5%)" stroke-width="1.5"></path><path d="M1584.89 -63.79L1430.66 59.63" stroke="hsl(228.5, 77.2%, 51.5%)" stroke-width="1.5"></path><path d="M1584.89 -63.79L1388.27 -85.06" stroke="hsl(228.5, 77.2%, 51.5%)" stroke-width="1.5"></path><path d="M1584.89 -63.79L1590.9 233.59" stroke="hsl(228.5, 77.2%, 51.5%)" stroke-width="1.5"></path><path d="M1584.89 -63.79L1454.3 207.79" stroke="hsl(228.5, 77.2%, 51.5%)" stroke-width="1.5"></path><path d="M1591.2 382.34L1591.2 382.34" stroke="hsl(228.5, 77.2%, 51.5%)" stroke-width="1.5"></path><path d="M1591.2 382.34L1601.74 512.75" stroke="hsl(228.5, 77.2%, 51.5%)" stroke-width="1.5"></path><path d="M1591.2 382.34L1457.24 389.35" stroke="hsl(228.5, 77.2%, 51.5%)" stroke-width="1.5"></path><path d="M1591.2 382.34L1590.9 233.59" stroke="hsl(228.5, 77.2%, 51.5%)" stroke-width="1.5"></path><path d="M1591.2 382.34L1419.59 509.43" stroke="hsl(228.5, 77.2%, 51.5%)" stroke-width="1.5"></path><path d="M1601.74 512.75L1601.74 512.75" stroke="hsl(228.5, 77.2%, 51.5%)" stroke-width="1.5"></path><path d="M1601.74 512.75L1419.59 509.43" stroke="hsl(228.5, 77.2%, 51.5%)" stroke-width="1.5"></path><path d="M1601.74 512.75L1551.83 694.89" stroke="hsl(228.5, 77.2%, 51.5%)" stroke-width="1.5"></path><path d="M1601.74 512.75L1457.24 389.35" stroke="hsl(228.5, 77.2%, 51.5%)" stroke-width="1.5"></path><path d="M-82.71 487.82L-82.71 487.82" stroke="hsl(228.5, 77.2%, 51.5%)" stroke-width="1.5"></path><path d="M-82.71 487.82L68.32 641.83" stroke="hsl(228.5, 77.2%, 51.5%)" stroke-width="1.5"></path><path d="M-82.71 487.82L190.82 672.35" stroke="hsl(228.5, 77.2%, 51.5%)" stroke-width="1.5"></path><path d="M-82.71 487.82L257.8 550.75" stroke="hsl(228.5, 77.2%, 51.5%)" stroke-width="1.5"></path><path d="M-82.71 487.82L390.5 497.18" stroke="hsl(228.5, 77.2%, 51.5%)" stroke-width="1.5"></path><path d="M68.32 641.83L68.32 641.83" stroke="hsl(228.5, 77.2%, 51.5%)" stroke-width="1.5"></path><path d="M68.32 641.83L379.98 709.48" stroke="hsl(228.5, 77.2%, 51.5%)" stroke-width="1.5"></path><path d="M390.5 497.18L390.5 497.18" stroke="hsl(228.5, 77.2%, 51.5%)" stroke-width="1.5"></path><path d="M390.5 497.18L508.59 412.32" stroke="hsl(228.5, 77.2%, 51.5%)" stroke-width="1.5"></path><path d="M379.98 709.48L379.98 709.48" stroke="hsl(228.5, 77.2%, 51.5%)" stroke-width="1.5"></path><path d="M508.59 412.32L508.59 412.32" stroke="hsl(228.5, 77.2%, 51.5%)" stroke-width="1.5"></path><path d="M508.59 412.32L560.62 504.01" stroke="hsl(228.5, 77.2%, 51.5%)" stroke-width="1.5"></path><path d="M560.62 504.01L560.62 504.01" stroke="hsl(228.5, 77.2%, 51.5%)" stroke-width="1.5"></path><path d="M560.62 504.01L699.59 508.03" stroke="hsl(228.5, 77.2%, 51.5%)" stroke-width="1.5"></path><path d="M699.59 508.03L699.59 508.03" stroke="hsl(228.5, 77.2%, 51.5%)" stroke-width="1.5"></path><path d="M699.59 508.03L856.49 524.61" stroke="hsl(228.5, 77.2%, 51.5%)" stroke-width="1.5"></path><path d="M699.59 508.03L852.87 396.36" stroke="hsl(228.5, 77.2%, 51.5%)" stroke-width="1.5"></path><path d="M699.59 508.03L688.92 703.83" stroke="hsl(228.5, 77.2%, 51.5%)" stroke-width="1.5"></path><path d="M699.59 508.03L508.59 412.32" stroke="hsl(228.5, 77.2%, 51.5%)" stroke-width="1.5"></path><path d="M688.92 703.83L688.92 703.83" stroke="hsl(228.5, 77.2%, 51.5%)" stroke-width="1.5"></path><path d="M688.92 703.83L560.62 504.01" stroke="hsl(228.5, 77.2%, 51.5%)" stroke-width="1.5"></path><path d="M852.87 396.36L852.87 396.36" stroke="hsl(228.5, 77.2%, 51.5%)" stroke-width="1.5"></path><path d="M852.87 396.36L856.49 524.61" stroke="hsl(228.5, 77.2%, 51.5%)" stroke-width="1.5"></path><path d="M852.87 396.36L986.81 350.52" stroke="hsl(228.5, 77.2%, 51.5%)" stroke-width="1.5"></path><path d="M852.87 396.36L940.71 516.48" stroke="hsl(228.5, 77.2%, 51.5%)" stroke-width="1.5"></path><path d="M852.87 396.36L999.29 233.05" stroke="hsl(228.5, 77.2%, 51.5%)" stroke-width="1.5"></path><path d="M856.49 524.61L856.49 524.61" stroke="hsl(228.5, 77.2%, 51.5%)" stroke-width="1.5"></path><path d="M856.49 524.61L940.71 516.48" stroke="hsl(228.5, 77.2%, 51.5%)" stroke-width="1.5"></path><path d="M856.49 524.61L1011.12 651.86" stroke="hsl(228.5, 77.2%, 51.5%)" stroke-width="1.5"></path><path d="M856.49 524.61L986.81 350.52" stroke="hsl(228.5, 77.2%, 51.5%)" stroke-width="1.5"></path><path d="M999.29 233.05L999.29 233.05" stroke="hsl(228.5, 77.2%, 51.5%)" stroke-width="1.5"></path><path d="M999.29 233.05L986.81 350.52" stroke="hsl(228.5, 77.2%, 51.5%)" stroke-width="1.5"></path><path d="M999.29 233.05L1149.02 189.65" stroke="hsl(228.5, 77.2%, 51.5%)" stroke-width="1.5"></path><path d="M986.81 350.52L986.81 350.52" stroke="hsl(228.5, 77.2%, 51.5%)" stroke-width="1.5"></path><path d="M940.71 516.48L940.71 516.48" stroke="hsl(228.5, 77.2%, 51.5%)" stroke-width="1.5"></path><path d="M940.71 516.48L986.81 350.52" stroke="hsl(228.5, 77.2%, 51.5%)" stroke-width="1.5"></path><path d="M940.71 516.48L1111.67 493.82" stroke="hsl(228.5, 77.2%, 51.5%)" stroke-width="1.5"></path><path d="M1149.02 189.65L1149.02 189.65" stroke="hsl(228.5, 77.2%, 51.5%)" stroke-width="1.5"></path><path d="M1149.02 189.65L1296.53 240.09" stroke="hsl(228.5, 77.2%, 51.5%)" stroke-width="1.5"></path><path d="M1149.02 189.65L1264.29 41.78" stroke="hsl(228.5, 77.2%, 51.5%)" stroke-width="1.5"></path><path d="M1111.67 493.82L1111.67 493.82" stroke="hsl(228.5, 77.2%, 51.5%)" stroke-width="1.5"></path><path d="M1111.67 493.82L1245.86 390.49" stroke="hsl(228.5, 77.2%, 51.5%)" stroke-width="1.5"></path><path d="M1138.51 680.9L1138.51 680.9" stroke="hsl(228.5, 77.2%, 51.5%)" stroke-width="1.5"></path><path d="M1138.51 680.9L1111.67 493.82" stroke="hsl(228.5, 77.2%, 51.5%)" stroke-width="1.5"></path><path d="M1138.51 680.9L940.71 516.48" stroke="hsl(228.5, 77.2%, 51.5%)" stroke-width="1.5"></path><path d="M1252.99 -111.63L1252.99 -111.63" stroke="hsl(228.5, 77.2%, 51.5%)" stroke-width="1.5"></path><path d="M1252.99 -111.63L1388.27 -85.06" stroke="hsl(228.5, 77.2%, 51.5%)" stroke-width="1.5"></path><path d="M1252.99 -111.63L1264.29 41.78" stroke="hsl(228.5, 77.2%, 51.5%)" stroke-width="1.5"></path><path d="M1252.99 -111.63L1430.66 59.63" stroke="hsl(228.5, 77.2%, 51.5%)" stroke-width="1.5"></path><path d="M1252.99 -111.63L1149.02 189.65" stroke="hsl(228.5, 77.2%, 51.5%)" stroke-width="1.5"></path><path d="M1252.99 -111.63L1584.89 -63.79" stroke="hsl(228.5, 77.2%, 51.5%)" stroke-width="1.5"></path><path d="M1252.99 -111.63L1296.53 240.09" stroke="hsl(228.5, 77.2%, 51.5%)" stroke-width="1.5"></path><path d="M1264.29 41.78L1264.29 41.78" stroke="hsl(228.5, 77.2%, 51.5%)" stroke-width="1.5"></path><path d="M1264.29 41.78L1430.66 59.63" stroke="hsl(228.5, 77.2%, 51.5%)" stroke-width="1.5"></path><path d="M1296.53 240.09L1296.53 240.09" stroke="hsl(228.5, 77.2%, 51.5%)" stroke-width="1.5"></path><path d="M1296.53 240.09L1245.86 390.49" stroke="hsl(228.5, 77.2%, 51.5%)" stroke-width="1.5"></path><path d="M1245.86 390.49L1245.86 390.49" stroke="hsl(228.5, 77.2%, 51.5%)" stroke-width="1.5"></path><path d="M1388.27 -85.06L1388.27 -85.06" stroke="hsl(228.5, 77.2%, 51.5%)" stroke-width="1.5"></path><path d="M1388.27 -85.06L1430.66 59.63" stroke="hsl(228.5, 77.2%, 51.5%)" stroke-width="1.5"></path><path d="M1388.27 -85.06L1264.29 41.78" stroke="hsl(228.5, 77.2%, 51.5%)" stroke-width="1.5"></path><path d="M1430.66 59.63L1430.66 59.63" stroke="hsl(228.5, 77.2%, 51.5%)" stroke-width="1.5"></path><path d="M1430.66 59.63L1556.79 99.69" stroke="hsl(228.5, 77.2%, 51.5%)" stroke-width="1.5"></path><path d="M1457.24 389.35L1457.24 389.35" stroke="hsl(228.5, 77.2%, 51.5%)" stroke-width="1.5"></path><path d="M1457.24 389.35L1419.59 509.43" stroke="hsl(228.5, 77.2%, 51.5%)" stroke-width="1.5"></path><path d="M1419.59 509.43L1419.59 509.43" stroke="hsl(228.5, 77.2%, 51.5%)" stroke-width="1.5"></path><path d="M1419.59 509.43L1450.33 708.64" stroke="hsl(228.5, 77.2%, 51.5%)" stroke-width="1.5"></path><path d="M1419.59 509.43L1245.86 390.49" stroke="hsl(228.5, 77.2%, 51.5%)" stroke-width="1.5"></path><path d="M1450.33 708.64L1450.33 708.64" stroke="hsl(228.5, 77.2%, 51.5%)" stroke-width="1.5"></path><path d="M1450.33 708.64L1551.83 694.89" stroke="hsl(228.5, 77.2%, 51.5%)" stroke-width="1.5"></path><path d="M1450.33 708.64L1601.74 512.75" stroke="hsl(228.5, 77.2%, 51.5%)" stroke-width="1.5"></path><path d="M1450.33 708.64L1138.51 680.9" stroke="hsl(228.5, 77.2%, 51.5%)" stroke-width="1.5"></path><path d="M1450.33 708.64L1457.24 389.35" stroke="hsl(228.5, 77.2%, 51.5%)" stroke-width="1.5"></path><path d="M1450.33 708.64L1591.2 382.34" stroke="hsl(228.5, 77.2%, 51.5%)" stroke-width="1.5"></path><path d="M1556.79 99.69L1556.79 99.69" stroke="hsl(228.5, 77.2%, 51.5%)" stroke-width="1.5"></path><path d="M1556.79 99.69L1590.9 233.59" stroke="hsl(228.5, 77.2%, 51.5%)" stroke-width="1.5"></path><path d="M1590.9 233.59L1590.9 233.59" stroke="hsl(228.5, 77.2%, 51.5%)" stroke-width="1.5"></path><path d="M1590.9 233.59L1457.24 389.35" stroke="hsl(228.5, 77.2%, 51.5%)" stroke-width="1.5"></path><path d="M1590.9 233.59L1430.66 59.63" stroke="hsl(228.5, 77.2%, 51.5%)" stroke-width="1.5"></path><path d="M1590.9 233.59L1601.74 512.75" stroke="hsl(228.5, 77.2%, 51.5%)" stroke-width="1.5"></path><path d="M1551.83 694.89L1551.83 694.89" stroke="hsl(228.5, 77.2%, 51.5%)" stroke-width="1.5"></path><circle r="25" cx="-95.78" cy="707.52" fill="url(#SvgjsRadialGradient1001)"></circle><circle r="25" cx="62.52" cy="543.99" fill="url(#SvgjsRadialGradient1001)"></circle><circle r="25" cx="257.8" cy="550.75" fill="url(#SvgjsRadialGradient1001)"></circle><circle r="25" cx="190.82" cy="672.35" fill="url(#SvgjsRadialGradient1001)"></circle><circle r="25" cx="554.26" cy="661.35" fill="url(#SvgjsRadialGradient1001)"></circle><circle r="25" cx="819.53" cy="693.72" fill="url(#SvgjsRadialGradient1001)"></circle><circle r="25" cx="1011.12" cy="651.86" fill="url(#SvgjsRadialGradient1001)"></circle><circle r="25" cx="1087.94" cy="386.74" fill="url(#SvgjsRadialGradient1001)"></circle><circle r="25" cx="1454.3" cy="207.79" fill="url(#SvgjsRadialGradient1001)"></circle><circle r="25" cx="1584.89" cy="-63.79" fill="url(#SvgjsRadialGradient1001)"></circle><circle r="25" cx="1591.2" cy="382.34" fill="url(#SvgjsRadialGradient1001)"></circle><circle r="25" cx="1601.74" cy="512.75" fill="url(#SvgjsRadialGradient1001)"></circle><circle r="5" cx="-82.71" cy="487.82" fill="#8b9ad9"></circle><circle r="5" cx="68.32" cy="641.83" fill="#8b9ad9"></circle><circle r="5" cx="390.5" cy="497.18" fill="#8b9ad9"></circle><circle r="5" cx="379.98" cy="709.48" fill="#8b9ad9"></circle><circle r="5" cx="508.59" cy="412.32" fill="#8b9ad9"></circle><circle r="5" cx="560.62" cy="504.01" fill="#8b9ad9"></circle><circle r="5" cx="699.59" cy="508.03" fill="#8b9ad9"></circle><circle r="5" cx="688.92" cy="703.83" fill="#8b9ad9"></circle><circle r="5" cx="852.87" cy="396.36" fill="#8b9ad9"></circle><circle r="5" cx="856.49" cy="524.61" fill="#8b9ad9"></circle><circle r="5" cx="999.29" cy="233.05" fill="#8b9ad9"></circle><circle r="5" cx="986.81" cy="350.52" fill="#8b9ad9"></circle><circle r="5" cx="940.71" cy="516.48" fill="#8b9ad9"></circle><circle r="5" cx="1149.02" cy="189.65" fill="#8b9ad9"></circle><circle r="5" cx="1111.67" cy="493.82" fill="#8b9ad9"></circle><circle r="5" cx="1138.51" cy="680.9" fill="#8b9ad9"></circle><circle r="5" cx="1252.99" cy="-111.63" fill="#8b9ad9"></circle><circle r="5" cx="1264.29" cy="41.78" fill="#8b9ad9"></circle><circle r="5" cx="1296.53" cy="240.09" fill="#8b9ad9"></circle><circle r="5" cx="1245.86" cy="390.49" fill="#8b9ad9"></circle><circle r="5" cx="1388.27" cy="-85.06" fill="#8b9ad9"></circle><circle r="5" cx="1430.66" cy="59.63" fill="#8b9ad9"></circle><circle r="5" cx="1457.24" cy="389.35" fill="#8b9ad9"></circle><circle r="5" cx="1419.59" cy="509.43" fill="#8b9ad9"></circle><circle r="5" cx="1450.33" cy="708.64" fill="#8b9ad9"></circle><circle r="5" cx="1556.79" cy="99.69" fill="#8b9ad9"></circle><circle r="5" cx="1590.9" cy="233.59" fill="#8b9ad9"></circle><circle r="5" cx="1551.83" cy="694.89" fill="#8b9ad9"></circle></g><defs><mask id="SvgjsMask1000"><rect width="1440" height="560" fill="#ffffff"></rect></mask><radialGradient id="SvgjsRadialGradient1001"><stop stop-color="#ffffff" offset="0.1"></stop><stop stop-color="#1735b3" offset="0.2"></stop><stop stop-color="rgba(23, 53, 179, 0)" offset="1"></stop></radialGradient></defs></svg>